{
  "accessors": [
    {
      "bufferView": 2,
      "componentType": 5126,
      "count": 180,
      "max": [
        0.3753300607204437,
        0.04514496773481369,
        0.9807849526405334
      ],
      "min": [
        -0.8154928088188171,
        -1.0,
        8.742277657347586e-08
      ],
      "type": "VEC3"
    },
    {
      "bufferView": 2,
      "byteOffset": 2160,
      "componentType": 5126,
      "count": 180,
      "max": [
        0.7400249242782593,
        0.9958394169807434,
        0.8678974509239197
      ],
      "min": [
        -0.9801559448242188,
        -0.9831809401512146,
        -0.956940770149231
      ],
      "type": "VEC3"
    },
    {
      "bufferView": 1,
      "componentType": 5126,
      "count": 180,
      "max": [
        0.6177448034286499,
        0.9886587262153625
      ],
      "min": [
        0.011795863509178162,
        0.009844839572906494
      ],
      "type": "VEC2"
    },
    {
      "bufferView": 0,
      "componentType": 5125,
      "count": 840,
      "type": "SCALAR"
    },
    {
      "bufferView": 2,
      "byteOffset": 4320,
      "componentType": 5126,
      "count": 142,
      "max": [
        0.379424512386322,
        0.17362619936466217,
        0.8537943959236145
      ],
      "min": [
        -0.8273197412490845,
        -0.6651099920272827,
        -0.1282142698764801
      ],
      "type": "VEC3"
    },
    {
      "bufferView": 2,
      "byteOffset": 6024,
      "componentType": 5126,
      "count": 142,
      "max": [
        0.9474284648895264,
        0.8269549012184143,
        0.8227753639221191
      ],
      "min": [
        -0.7674989700317383,
        -0.8317921161651611,
        -0.862953245639801
      ],
      "type": "VEC3"
    },
    {
      "bufferView": 1,
      "byteOffset": 1440,
      "componentType": 5126,
      "count": 142,
      "max": [
        0.9671048521995544,
        0.9951115250587463
      ],
      "min": [
        0.008585739880800247,
        0.015669506043195724
      ],
      "type": "VEC2"
    },
    {
      "bufferView": 0,
      "byteOffset": 3360,
      "componentType": 5125,
      "count": 582,
      "type": "SCALAR"
    },
    {
      "bufferView": 2,
      "byteOffset": 7728,
      "componentType": 5126,
      "count": 116,
      "max": [
        0.5575467348098755,
        0.2451033890247345,
        0.3218540847301483
      ],
      "min": [
        -0.6457053422927856,
        -0.18658706545829773,
        -0.4262329041957855
      ],
      "type": "VEC3"
    },
    {
      "bufferView": 2,
      "byteOffset": 9120,
      "componentType": 5126,
      "count": 116,
      "max": [
        0.95824134349823,
        0.899186909198761,
        0.8482065796852112
      ],
      "min": [
        -0.773098349571228,
        -0.8566694855690002,
        -0.8487796187400818
      ],
      "type": "VEC3"
    },
    {
      "bufferView": 1,
      "byteOffset": 2576,
      "componentType": 5126,
      "count": 116,
      "max": [
        0.9930554032325745,
        0.9820696115493774
      ],
      "min": [
        0.01493024080991745,
        0.018983032554388046
      ],
      "type": "VEC2"
    },
    {
      "bufferView": 0,
      "byteOffset": 5688,
      "componentType": 5125,
      "count": 372,
      "type": "SCALAR"
    },
    {
      "bufferView": 2,
      "byteOffset": 10512,
      "componentType": 5126,
      "count": 816,
      "max": [
        1.1394504308700562,
        0.29622527956962585,
        1.1369117498397827
      ],
      "min": [
        -1.1694344282150269,
        -0.01687701977789402,
        -1.1371432542800903
      ],
      "type": "VEC3"
    },
    {
      "bufferView": 2,
      "byteOffset": 20304,
      "componentType": 5126,
      "count": 816,
      "max": [
        0.9759647846221924,
        1.0,
        0.9878033399581909
      ],
      "min": [
        -0.9827371835708618,
        -1.0,
        -0.9821531176567078
      ],
      "type": "VEC3"
    },
    {
      "bufferView": 1,
      "byteOffset": 3504,
      "componentType": 5126,
      "count": 816,
      "max": [
        0.9956241250038147,
        0.9918946027755737
      ],
      "min": [
        0.002525556366890669,
        0.01234424114227295
      ],
      "type": "VEC2"
    },
    {
      "bufferView": 0,
      "byteOffset": 7176,
      "componentType": 5125,
      "count": 3360,
      "type": "SCALAR"
    }
  ],
  "asset": {
    "extras": {
      "author": "Omar Faruq Tawsif (https://sketchfab.com/omarfaruqtawsif32)",
      "license": "CC-BY-4.0 (http://creativecommons.org/licenses/by/4.0/)",
      "source": "https://sketchfab.com/3d-models/painterly-brushwork-study-with-pchans-painting-e0166b7b9bff42e9a6b39ac1f08ce53c",
      "title": "Painterly brushwork study with Pchan's painting"
    },
    "generator": "Sketchfab-13.88.0",
    "version": "2.0"
  },
  "bufferViews": [
    {
      "buffer": 0,
      "byteLength": 20616,
      "name": "floatBufferViews",
      "target": 34963
    },
    {
      "buffer": 0,
      "byteLength": 10032,
      "byteOffset": 20616,
      "byteStride": 8,
      "name": "floatBufferViews",
      "target": 34962
    },
    {
      "buffer": 0,
      "byteLength": 30096,
      "byteOffset": 30648,
      "byteStride": 12,
      "name": "floatBufferViews",
      "target": 34962
    }
  ],
  "buffers": [
    {
      "byteLength": 60744,
      "uri": "scene.bin"
    }
  ],
  "extensionsUsed": [
    "KHR_materials_unlit"
  ],
  "images": [
    {
      "uri": "textures/Material.001_baseColor.png"
    }
  ],
  "materials": [
    {
      "doubleSided": true,
      "extensions": {
        "KHR_materials_unlit": {}
      },
      "name": "Material.001",
      "pbrMetallicRoughness": {
        "baseColorTexture": {
          "index": 0
        },
        "metallicFactor": 0.0
      }
    }
  ],
  "meshes": [
    {
      "name": "Object_0",
      "primitives": [
        {
          "attributes": {
            "NORMAL": 1,
            "POSITION": 0,
            "TEXCOORD_0": 2
          },
          "indices": 3,
          "material": 0,
          "mode": 4
        }
      ]
    },
    {
      "name": "Object_1",
      "primitives": [
        {
          "attributes": {
            "NORMAL": 5,
            "POSITION": 4,
            "TEXCOORD_0": 6
          },
          "indices": 7,
          "material": 0,
          "mode": 4
        }
      ]
    },
    {
      "name": "Object_2",
      "primitives": [
        {
          "attributes": {
            "NORMAL": 9,
            "POSITION": 8,
            "TEXCOORD_0": 10
          },
          "indices": 11,
          "material": 0,
          "mode": 4
        }
      ]
    },
    {
      "name": "Object_3",
      "primitives": [
        {
          "attributes": {
            "NORMAL": 13,
            "POSITION": 12,
            "TEXCOORD_0": 14
          },
          "indices": 15,
          "material": 0,
          "mode": 4
        }
      ]
    }
  ],
  "nodes": [
    {
      "children": [
        1
      ],
      "matrix": [
        0.027964288274269666,
        -0.003476975019657106,
        0.014879542222738129,
        0.0,
        0.014825674063168148,
        -0.0013399093321094172,
        -0.028176152037417523,
        0.0,
        0.0036999353615580766,
        0.03164817292625188,
        0.0004418046073869365,
        0.0,
        0.0,
        0.0,
        0.0,
        1.0
      ],
      "name": "Sketchfab_model"
    },
    {
      "children": [
        2
      ],
      "name": "root"
    },
    {
      "children": [
        3,
        5,
        7,
        9
      ],
      "matrix": [
        1.0,
        0.0,
        0.0,
        0.0,
        0.0,
        2.220446049250313e-16,
        1.0,
        0.0,
        0.0,
        -1.0,
        2.220446049250313e-16,
        0.0,
        0.0,
        0.0,
        0.0,
        1.0
      ],
      "name": "GLTF_SceneRootNode"
    },
    {
      "children": [
        4
      ],
      "matrix": [
        -0.74295209075231,
        0.3702347650562349,
        0.55762748281494,
        0.0,
        -0.2631347506543758,
        0.6044652724323789,
        -0.7519187704940671,
        0.0,
        -0.6154529176507583,
        -0.7053707912630098,
        -0.3516671053541469,
        0.0,
        0.26509812474250793,
        0.744050145149231,
        0.21143923699855804,
        1.0
      ],
      "name": "Sphere_2"
    },
    {
      "mesh": 0,
      "name": "Object_4"
    },
    {
      "children": [
        6
      ],
      "matrix": [
        0.22494400062345496,
        0.13262477112708043,
        -0.7865139911403219,
        0.0,
        0.46735164200781837,
        -0.6841351296117045,
        0.0183018779431521,
        0.0,
        -0.6463559629867932,
        -0.4485121917040156,
        -0.26048833869628285,
        0.0,
        -0.37351134419441223,
        -0.0785922184586525,
        -0.6094390153884888,
        1.0
      ],
      "name": "Sphere.001_3"
    },
    {
      "mesh": 1,
      "name": "Object_6"
    },
    {
      "children": [
        8
      ],
      "matrix": [
        -0.5641367949455391,
        -0.36381311243429726,
        -0.7333774733058958,
        0.0,
        -0.5282451022551156,
        -0.5186514646799689,
        0.6636346496597435,
        0.0,
        -0.6254275853753162,
        0.7662202857642122,
        0.10099263913317727,
        0.0,
        0.602377712726593,
        -0.028425132855772972,
        -0.5532945394515991,
        1.0
      ],
      "name": "Sphere.002_4"
    },
    {
      "mesh": 2,
      "name": "Object_8"
    },
    {
      "children": [
        10
      ],
      "matrix": [
        1.3581628799438477,
        0.0,
        0.0,
        0.0,
        0.0,
        1.3581628799438477,
        0.0,
        0.0,
        0.0,
        0.0,
        1.3581628799438477,
        0.0,
        0.12541700899600983,
        -0.2043745368719101,
        -0.4490872919559479,
        1.0
      ],
      "name": "Circle_5"
    },
    {
      "mesh": 3,
      "name": "Object_10"
    }
  ],
  "samplers": [
    {
      "magFilter": 9729,
      "minFilter": 9987,
      "wrapS": 10497,
      "wrapT": 10497
    }
  ],
  "scene": 0,
  "scenes": [
    {
      "name": "Sketchfab_Scene",
      "nodes": [
        0
      ]
    }
  ],
  "textures": [
    {
      "sampler": 0,
      "source": 0
    }
  ]
}
